<svg width="121" height="30" viewBox="0 0 121 30" fill="none" xmlns="http://www.w3.org/2000/svg">
<path d="M49.9658 23.578C48.6832 23.578 47.4774 23.3251 46.3484 22.8193C45.2194 22.3045 44.2258 21.5955 43.3678 20.6922C42.5187 19.789 41.8503 18.7458 41.3626 17.5626C40.8839 16.3703 40.6445 15.0967 40.6445 13.7419C40.6445 12.378 40.8839 11.1045 41.3626 9.92126C41.8503 8.729 42.5187 7.68578 43.3678 6.79159C44.2258 5.88836 45.2194 5.18384 46.3484 4.67804C47.4774 4.1632 48.6832 3.90578 49.9658 3.90578C51.5013 3.90578 52.9149 4.26255 54.2065 4.9761C55.4981 5.68062 56.5684 6.62449 57.4174 7.80772L54.4639 9.39288C53.931 8.73352 53.2671 8.20513 52.4723 7.80772C51.6865 7.4103 50.851 7.21159 49.9658 7.21159C49.1349 7.21159 48.3536 7.3832 47.622 7.72642C46.8903 8.06062 46.249 8.5303 45.6981 9.13546C45.1471 9.73159 44.7181 10.4271 44.411 11.2219C44.1039 12.0077 43.9503 12.8477 43.9503 13.7419C43.9503 14.6451 44.1039 15.4897 44.411 16.2755C44.7271 17.0613 45.1607 17.7567 45.7116 18.3619C46.2626 18.958 46.8994 19.4277 47.622 19.7709C48.3536 20.1051 49.1349 20.2722 49.9658 20.2722C50.869 20.2722 51.709 20.0735 52.4858 19.6761C53.2716 19.2696 53.931 18.7367 54.4639 18.0774L57.4174 19.6761C56.5684 20.8503 55.4981 21.7942 54.2065 22.5077C52.9149 23.2213 51.5013 23.578 49.9658 23.578Z" fill="#15171A"/>
<path d="M59.8388 23.2258V2.9032H63.1446V23.2258H59.8388Z" fill="#15171A"/>
<path d="M76.2696 9.67739H79.5754V23.2258H76.2696L76.1206 21.5458C75.7502 22.1509 75.258 22.6432 74.6438 23.0226C74.0386 23.3929 73.3206 23.578 72.4896 23.578C71.487 23.578 70.5477 23.3884 69.6715 23.009C68.7954 22.6297 68.0231 22.1058 67.3548 21.4374C66.6954 20.769 66.176 19.9967 65.7967 19.1206C65.4264 18.2445 65.2412 17.3051 65.2412 16.3026C65.2412 15.3361 65.4173 14.4284 65.7696 13.5793C66.1309 12.7303 66.6322 11.9851 67.2735 11.3438C67.9148 10.7026 68.6554 10.2013 69.4954 9.83997C70.3354 9.47868 71.2386 9.29804 72.2051 9.29804C73.0993 9.29804 73.8986 9.49675 74.6031 9.89417C75.3167 10.2916 75.9219 10.7974 76.4186 11.4116L76.2696 9.67739ZM72.4083 20.3942C73.1128 20.3942 73.736 20.218 74.278 19.8658C74.8199 19.5135 75.2444 19.0393 75.5515 18.4432C75.8586 17.838 76.0122 17.1742 76.0122 16.4516C76.0122 15.72 75.8586 15.0561 75.5515 14.46C75.2444 13.8548 74.8154 13.3761 74.2644 13.0238C73.7225 12.6716 73.1038 12.4955 72.4083 12.4955C71.7128 12.4955 71.076 12.6761 70.498 13.0374C69.9289 13.3897 69.4728 13.8638 69.1296 14.46C68.7954 15.0561 68.6283 15.72 68.6283 16.4516C68.6283 17.1832 68.7999 17.8471 69.1431 18.4432C69.4864 19.0393 69.9425 19.5135 70.5115 19.8658C71.0896 20.218 71.7218 20.3942 72.4083 20.3942Z" fill="#15171A"/>
<path d="M82.1532 23.2258L82.1396 9.67739H85.4454L85.459 10.8832C85.9196 10.3955 86.4706 10.0116 87.1119 9.73159C87.7532 9.44255 88.4442 9.29804 89.1848 9.29804C89.6816 9.29804 90.1784 9.3703 90.6751 9.51481L89.3745 12.8477C89.0313 12.7122 88.688 12.6445 88.3448 12.6445C87.8119 12.6445 87.3242 12.7755 86.8816 13.0374C86.448 13.2903 86.1003 13.638 85.8383 14.0806C85.5854 14.5142 85.459 14.9974 85.459 15.5303V23.2258H82.1532Z" fill="#15171A"/>
<path d="M92.0067 9.67739H95.3125V23.2258H92.0067V9.67739ZM93.6867 7.92965C93.1989 7.92965 92.788 7.77159 92.4538 7.45546C92.1196 7.1303 91.9525 6.72384 91.9525 6.2361C91.9525 5.75739 92.1196 5.35546 92.4538 5.0303C92.788 4.70513 93.1944 4.54255 93.6731 4.54255C94.1518 4.54255 94.5538 4.70513 94.8789 5.0303C95.2131 5.35546 95.3802 5.75739 95.3802 6.2361C95.3802 6.72384 95.2176 7.1303 94.8925 7.45546C94.5673 7.77159 94.1654 7.92965 93.6867 7.92965Z" fill="#15171A"/>
<path d="M105.696 12.9832H103.067V23.2258H99.7614V12.9832H97.7563V9.67739H99.7614V5.4232H103.067V9.67739H105.696V12.9832Z" fill="#15171A"/>
<path d="M116.775 9.67739H120.284L112.873 30H109.364L111.816 23.2258L106.938 9.67739H110.556L113.469 18.7006L116.775 9.67739Z" fill="#15171A"/>
<path d="M29.0323 14.5161C29.0323 22.5332 22.5332 29.0323 14.5161 29.0323C6.49909 29.0323 0 22.5332 0 14.5161C0 6.49909 6.49909 0 14.5161 0C22.5332 0 29.0323 6.49909 29.0323 14.5161Z" fill="#625DF5"/>
<path d="M14.5149 5.12317C14.9965 10.0975 18.9333 14.0343 23.9076 14.516C18.9333 14.9976 14.9965 18.9344 14.5149 23.9087C14.0332 18.9344 10.0964 14.9976 5.12207 14.516C10.0964 14.0343 14.0332 10.0975 14.5149 5.12317Z" fill="white"/>
</svg>
